<?xml version="1.0" standalone="no"?>
<!DOCTYPE svg PUBLIC "-//W3C//DTD SVG 20010904//EN"
 "http://www.w3.org/TR/2001/REC-SVG-20010904/DTD/svg10.dtd">
<svg version="1.0" xmlns="http://www.w3.org/2000/svg"
 width="64.000000pt" height="64.000000pt" viewBox="0 0 64.000000 64.000000"
 preserveAspectRatio="xMidYMid meet">

<g transform="translate(0.000000,64.000000) scale(0.100000,-0.100000)"
fill="#000000" stroke="none">
<path d="M244 590 c-17 -27 -22 -29 -88 -32 l-71 -3 -3 -50 c-2 -37 1 -52 13
-61 12 -9 21 -52 35 -184 10 -94 24 -178 31 -186 17 -21 301 -21 318 0 7 8 21
92 31 186 14 132 23 175 35 184 12 9 15 24 13 61 l-3 50 -71 3 c-66 3 -71 5
-88 32 -16 28 -21 30 -76 30 -55 0 -60 -2 -76 -30z m134 -10 c12 -19 10 -20
-58 -20 -68 0 -70 1 -58 20 10 15 24 20 58 20 34 0 48 -5 58 -20z m162 -80 l0
-40 -220 0 -220 0 0 40 0 40 220 0 220 0 0 -40z m-33 -92 c-4 -18 -11 -89 -18
-158 -18 -185 -2 -170 -169 -170 -167 0 -151 -15 -169 170 -7 69 -14 140 -18
158 l-5 32 192 0 192 0 -5 -32z"/>
<path d="M130 500 c0 -11 5 -20 10 -20 6 0 10 9 10 20 0 11 -4 20 -10 20 -5 0
-10 -9 -10 -20z"/>
<path d="M180 500 c0 -11 5 -20 10 -20 6 0 10 9 10 20 0 11 -4 20 -10 20 -5 0
-10 -9 -10 -20z"/>
<path d="M230 500 c0 -11 5 -20 10 -20 6 0 10 9 10 20 0 11 -4 20 -10 20 -5 0
-10 -9 -10 -20z"/>
<path d="M280 500 c0 -11 5 -20 10 -20 6 0 10 9 10 20 0 11 -4 20 -10 20 -5 0
-10 -9 -10 -20z"/>
<path d="M340 500 c0 -11 5 -20 10 -20 6 0 10 9 10 20 0 11 -4 20 -10 20 -5 0
-10 -9 -10 -20z"/>
<path d="M390 500 c0 -11 5 -20 10 -20 6 0 10 9 10 20 0 11 -4 20 -10 20 -5 0
-10 -9 -10 -20z"/>
<path d="M440 500 c0 -11 5 -20 10 -20 6 0 10 9 10 20 0 11 -4 20 -10 20 -5 0
-10 -9 -10 -20z"/>
<path d="M490 500 c0 -11 5 -20 10 -20 6 0 10 9 10 20 0 11 -4 20 -10 20 -5 0
-10 -9 -10 -20z"/>
<path d="M230 384 c0 -6 16 -25 35 -44 19 -19 35 -39 35 -45 0 -6 -16 -26 -35
-45 -19 -19 -35 -38 -35 -44 0 -6 20 10 45 34 l45 44 45 -44 c25 -24 45 -40
45 -34 0 6 -16 25 -35 44 -19 19 -35 39 -35 45 0 6 16 26 35 45 19 19 35 38
35 44 0 6 -20 -10 -45 -34 l-45 -44 -45 44 c-25 24 -45 40 -45 34z"/>
<path d="M200 110 c0 -6 33 -10 80 -10 47 0 80 4 80 10 0 6 -33 10 -80 10 -47
0 -80 -4 -80 -10z"/>
<path d="M380 110 c0 -5 14 -10 30 -10 17 0 30 5 30 10 0 6 -13 10 -30 10 -16
0 -30 -4 -30 -10z"/>
</g>
</svg>
