<?xml version="1.0" standalone="no"?>
<!DOCTYPE svg PUBLIC "-//W3C//DTD SVG 20010904//EN"
 "http://www.w3.org/TR/2001/REC-SVG-20010904/DTD/svg10.dtd">
<svg version="1.0" xmlns="http://www.w3.org/2000/svg"
 width="24.000000pt" height="24.000000pt" viewBox="0 0 24.000000 24.000000"
 preserveAspectRatio="xMidYMid meet">

<g transform="translate(0.000000,24.000000) scale(0.100000,-0.100000)"
fill="#000000" stroke="none">
<path d="M 37 192 c -29 -31 -20 -60 33 -115 l 50 -52 l 50 52 c 32 33 50 60 50 76 c 0 44 -59 74 -88 45 c -12.385 -13.079 -12.385 -13.079 -24 0 c -18 18 -53 15 -71 -6 z m 63 -12 c 19.615 -20.985 19.956 -20.644 44 1 c 20 9 29 9 41 -1 c 23 -19 18 -37 -24 -83 l -40 -42 l -35 34 c -42 41 -52 66 -36 86 c 15 18 25 19 50 5 z"/>
</g>
</svg>
