<?xml version="1.0" standalone="no"?>
<!DOCTYPE svg PUBLIC "-//W3C//DTD SVG 20010904//EN"
 "http://www.w3.org/TR/2001/REC-SVG-20010904/DTD/svg10.dtd">
<svg version="1.0" xmlns="http://www.w3.org/2000/svg"
 width="50.000000pt" height="50.000000pt" viewBox="0 0 50.000000 50.000000"
 preserveAspectRatio="xMidYMid meet">

<g transform="translate(0.000000,50.000000) scale(0.100000,-0.100000)"
fill="#000000" stroke="none">
<path d="M20 270 c0 -93 -4 -150 -10 -150 -5 0 -10 -16 -10 -35 l0 -35 250 0
250 0 0 35 c0 19 -4 35 -10 35 -6 0 -10 57 -10 150 l0 150 -230 0 -230 0 0
-150z m440 -10 l0 -140 -119 0 c-107 0 -119 2 -117 18 1 14 -9 18 -56 20 -53
3 -58 1 -58 -18 0 -16 -6 -20 -35 -20 l-35 0 0 140 0 140 210 0 210 0 0 -140z
m20 -175 c0 -13 -32 -15 -230 -15 -198 0 -230 2 -230 15 0 13 32 15 230 15
198 0 230 -2 230 -15z"/>
<path d="M325 305 c-33 -24 -65 -44 -71 -45 -6 0 -23 9 -38 21 l-26 20 -45
-32 c-25 -18 -45 -36 -45 -41 0 -13 11 -9 46 17 40 30 44 31 77 4 29 -22 25
-24 115 40 56 41 75 61 55 61 -5 0 -35 -20 -68 -45z"/>
</g>
</svg>
