<?xml version="1.0" standalone="no"?>
<!DOCTYPE svg PUBLIC "-//W3C//DTD SVG 20010904//EN"
 "http://www.w3.org/TR/2001/REC-SVG-20010904/DTD/svg10.dtd">
<svg version="1.0" xmlns="http://www.w3.org/2000/svg"
 width="1257.000000pt" height="345.000000pt" viewBox="0 0 1257.000000 345.000000"
 preserveAspectRatio="xMidYMid meet">

<g transform="translate(0.000000,345.000000) scale(0.100000,-0.100000)"
fill="#033d14" stroke="none">
<path d="M6420 2994 c-14 -3 -37 -10 -53 -16 l-27 -11 2 -341 3 -341 210 -3
c244 -3 312 8 370 62 74 70 74 222 -1 284 -32 27 -33 30 -18 43 28 23 44 75
44 142 0 81 -25 122 -95 157 -47 24 -60 25 -230 27 -99 0 -191 -1 -205 -3z
m254 -160 c19 -18 21 -85 4 -102 -7 -7 -22 -12 -35 -12 -22 0 -23 4 -23 65 0
58 2 65 19 65 11 0 27 -7 35 -16z m4 -286 c17 -17 15 -84 -4 -102 -8 -9 -24
-16 -35 -16 -17 0 -19 7 -19 65 0 61 1 65 23 65 13 0 28 -5 35 -12z"/>
<path d="M7267 2990 c-144 -37 -225 -145 -235 -313 -16 -279 93 -407 343 -407
255 0 381 145 362 418 -10 154 -53 229 -155 278 -50 24 -71 28 -167 30 -60 2
-127 -1 -148 -6z m150 -177 c14 -21 19 -53 22 -140 4 -134 -4 -194 -28 -224
-25 -31 -58 -18 -71 29 -13 47 -13 266 0 311 16 57 49 67 77 24z"/>
<path d="M3763 2981 c-24 -4 -45 -10 -49 -13 -7 -8 -172 -532 -180 -575 -3
-18 -10 -33 -15 -33 -5 0 -9 -11 -9 -23 0 -36 41 -50 163 -55 129 -5 157 6
157 63 l0 35 50 0 50 0 0 -36 c0 -31 4 -37 35 -50 22 -9 70 -14 134 -14 82 0
103 3 122 19 l23 18 -94 319 c-54 182 -103 326 -112 336 -15 15 -35 18 -125
17 -60 -1 -127 -5 -150 -8z m131 -292 c10 -98 9 -109 -14 -109 -16 0 -20 7
-20 33 0 53 12 137 20 137 4 0 10 -28 14 -61z"/>
<path d="M4357 2976 c-72 -26 -68 -4 -65 -365 l3 -326 228 -3 227 -2 11 26
c14 40 16 181 2 195 -8 8 -41 10 -102 7 l-91 -4 0 227 c0 224 0 228 -22 243
-28 20 -137 21 -191 2z"/>
<path d="M4899 2974 c-26 -7 -52 -20 -58 -28 -8 -9 -11 -106 -9 -337 l3 -324
231 -3 c214 -2 232 -1 239 15 11 28 18 158 11 188 l-7 27 -94 -4 -94 -3 -3
228 c-3 213 -4 230 -22 243 -26 18 -136 17 -197 -2z"/>
<path d="M5811 2979 c-24 -5 -45 -10 -46 -11 -4 -4 -159 -500 -180 -575 -10
-34 -15 -68 -12 -76 8 -22 79 -37 173 -37 104 0 131 12 136 63 3 31 5 32 51
35 46 3 47 2 47 -25 0 -58 34 -73 165 -73 100 0 145 13 145 40 0 10 -41 156
-91 326 -64 218 -97 314 -111 327 -17 14 -39 17 -127 16 -58 -1 -126 -5 -150
-10z m133 -266 c3 -21 6 -59 6 -85 0 -42 -3 -48 -21 -48 -21 0 -22 3 -15 61 3
34 6 73 6 85 0 38 17 28 24 -13z"/>
<path d="M7867 2976 c-70 -25 -67 -16 -67 -255 0 -243 9 -297 61 -356 17 -19
56 -47 87 -62 53 -26 66 -28 177 -28 104 0 127 3 170 23 60 28 100 64 128 117
21 37 22 56 25 289 4 295 7 286 -95 286 -77 0 -146 -16 -166 -39 -12 -13 -16
-63 -19 -236 -3 -121 -8 -228 -13 -237 -9 -22 -38 -23 -55 -3 -9 10 -14 85
-18 251 -4 185 -8 239 -19 250 -19 18 -144 18 -196 0z"/>
<path d="M8529 2974 c-18 -21 -25 -193 -10 -223 10 -18 20 -21 81 -21 l70 0 2
-222 3 -223 125 0 c69 0 133 3 143 7 15 7 17 27 17 223 l0 215 66 0 c65 0 65
0 80 35 14 34 20 178 8 209 -5 14 -40 16 -289 16 -247 0 -284 -2 -296 -16z"/>
<path d="M756 1917 c-33 -43 -93 -174 -141 -307 -21 -58 -42 -109 -47 -114 -4
-6 -8 71 -8 171 0 170 -1 182 -22 208 -32 41 -76 55 -170 55 -150 0 -295 -37
-345 -86 l-23 -23 0 -640 0 -640 23 -13 c30 -17 337 -17 431 0 112 21 106 12
106 167 l0 135 29 32 30 33 21 -50 c59 -137 142 -294 172 -324 29 -30 36 -33
74 -27 156 21 424 193 424 272 0 54 -92 186 -258 372 -75 84 -83 95 -70 111 7
10 60 77 118 149 152 188 200 272 186 328 -12 46 -103 128 -172 154 -88 33
-241 70 -290 70 -37 0 -47 -5 -68 -33z"/>
<path d="M3415 1943 c-122 -19 -238 -67 -331 -135 -169 -126 -253 -386 -225
-694 27 -299 114 -456 304 -549 121 -59 179 -69 382 -70 159 0 189 3 260 23
233 68 371 209 437 448 19 69 22 103 22 279 -1 173 -3 210 -22 278 -46 168
-122 270 -253 341 -106 58 -199 78 -384 81 -88 2 -173 1 -190 -2z m204 -340
c44 -45 56 -124 56 -378 0 -248 -12 -338 -52 -386 -18 -21 -34 -29 -57 -29
-76 0 -101 59 -117 277 -18 243 12 491 64 528 33 23 75 19 106 -12z"/>
<path d="M10675 1936 c-215 -41 -390 -164 -470 -331 -68 -140 -79 -204 -79
-440 1 -194 3 -217 27 -308 46 -173 123 -279 242 -333 66 -30 197 -43 264 -24
60 16 116 72 145 144 26 64 30 61 41 -37 7 -66 21 -84 72 -93 87 -16 387 11
421 38 9 8 12 82 12 307 0 327 0 324 -63 358 -51 27 -233 24 -315 -5 -77 -28
-128 -60 -142 -90 -5 -13 -10 -61 -10 -107 0 -97 -8 -104 -58 -52 -51 52 -65
105 -66 247 -1 95 3 137 17 176 42 120 109 137 337 84 132 -31 141 -31 165
-16 73 48 123 290 79 382 -21 43 -54 67 -124 89 -75 23 -394 30 -495 11z"/>
<path d="M1623 1915 c-79 -17 -181 -63 -193 -86 -6 -11 -10 -270 -10 -652 0
-577 1 -636 17 -648 36 -31 442 -20 512 14 l26 12 5 240 5 239 90 -239 c50
-131 97 -248 107 -259 15 -20 26 -21 215 -21 193 1 290 12 320 37 18 15 19
1271 0 1307 -6 13 -25 34 -40 45 -26 19 -42 21 -155 21 -104 0 -140 -4 -201
-23 -77 -24 -117 -45 -138 -71 -10 -11 -13 -78 -13 -255 0 -149 -4 -236 -9
-230 -5 5 -49 115 -96 244 -48 129 -94 250 -103 269 -26 57 -62 71 -177 70
-55 0 -128 -7 -162 -14z"/>
<path d="M4540 1915 c-143 -32 -260 -87 -260 -122 0 -31 443 -1239 461 -1258
18 -18 33 -20 182 -20 142 0 167 2 202 20 l39 20 53 174 c29 96 57 179 62 184
12 12 7 27 71 -188 67 -228 56 -218 254 -213 178 5 227 20 246 71 124 348 420
1223 420 1241 0 35 -51 81 -104 95 -145 36 -472 -16 -507 -81 -6 -11 -22 -164
-37 -339 -17 -215 -29 -319 -37 -319 -7 0 -22 112 -44 333 -21 204 -39 343
-48 360 -24 47 -71 60 -198 55 -121 -5 -191 -27 -219 -70 -10 -17 -22 -111
-42 -343 -25 -287 -33 -349 -48 -334 -3 2 -21 152 -40 333 -25 228 -40 336
-51 352 -28 44 -72 58 -185 61 -65 1 -130 -3 -170 -12z"/>
<path d="M6553 1910 c-39 -10 -89 -28 -111 -39 -78 -40 -72 21 -72 -691 l0
-639 22 -15 c20 -14 80 -16 460 -16 l437 0 15 28 c37 71 49 378 16 417 -13 16
-30 17 -202 10 l-188 -7 0 454 0 455 -22 21 c-13 11 -36 25 -51 31 -46 18
-223 12 -304 -9z"/>
<path d="M7525 1915 c-22 -8 -45 -22 -52 -32 -10 -13 -13 -161 -13 -679 0
-603 1 -663 17 -675 13 -12 107 -14 517 -14 l501 0 19 39 c15 31 20 69 24 167
5 144 -1 195 -26 208 -16 8 -262 0 -419 -14 l-73 -7 0 62 0 62 183 -2 c100 -2
188 -2 195 -1 47 4 83 262 48 345 l-16 39 -205 -6 -205 -6 0 65 0 66 28 -6
c47 -9 402 -28 418 -22 32 12 47 77 52 226 2 90 0 155 -7 173 l-11 27 -467 0
c-378 -1 -476 -4 -508 -15z"/>
<path d="M8745 1915 c-22 -8 -45 -22 -52 -32 -10 -13 -13 -161 -13 -679 0
-603 1 -663 17 -675 13 -11 92 -15 394 -17 341 -2 387 -1 472 17 186 38 290
109 357 244 64 130 75 196 75 457 0 256 -12 331 -71 449 -57 114 -146 180
-302 223 -71 20 -107 22 -457 25 -314 2 -387 0 -420 -12z m627 -324 c47 -52
53 -94 53 -361 0 -211 -3 -254 -19 -307 -29 -96 -70 -126 -143 -107 l-23 6 0
398 c0 309 3 400 13 404 31 14 92 -3 119 -33z"/>
<path d="M11555 1915 c-22 -8 -45 -22 -52 -32 -10 -13 -13 -161 -13 -679 0
-603 1 -663 17 -675 13 -12 107 -14 517 -14 l501 0 19 39 c15 31 20 69 24 167
5 144 -1 195 -26 208 -16 8 -262 0 -419 -14 l-73 -7 0 62 0 62 183 -2 c100 -2
188 -2 195 -1 47 4 83 262 48 345 l-16 39 -205 -6 -205 -6 0 65 0 66 28 -6
c15 -3 115 -10 221 -17 194 -11 195 -11 212 10 10 12 23 45 29 74 14 68 15
274 1 310 l-11 27 -467 0 c-378 -1 -476 -4 -508 -15z"/>
</g>
</svg>
