<svg version="1.0" xmlns="http://www.w3.org/2000/svg"
 width="1024.000000pt" height="1024.000000pt" viewBox="0 0 1024.000000 1024.000000"
 preserveAspectRatio="xMidYMid meet">

<g transform="translate(0.000000,1024.000000) scale(0.100000,-0.100000)"
fill="#008000" stroke="none">
<path d="M4855 8818 c-104 -40 -302 -117 -545 -213 -163 -64 -672 -262 -1136
-440 -189 -73 -217 -93 -230 -161 -7 -40 18 -96 53 -119 23 -16 99 -46 478
-190 l140 -54 5 -403 5 -403 30 -54 c40 -72 110 -132 225 -190 203 -104 583
-224 844 -266 121 -20 396 -20 529 0 211 32 521 128 775 240 81 36 150 65 154
65 5 0 8 -41 8 -91 0 -64 5 -101 16 -125 16 -34 16 -36 -8 -62 -14 -15 -32
-40 -41 -57 -23 -45 -67 -237 -67 -289 0 -147 162 -245 310 -186 134 53 166
143 119 344 -24 101 -50 165 -80 192 -20 18 -25 49 -9 59 6 4 10 225 10 631
l0 624 28 11 c15 6 68 26 117 44 336 122 409 155 436 200 33 53 18 124 -34
157 -42 28 -186 87 -692 283 -60 24 -319 125 -575 225 -697 273 -661 260 -727
260 -40 -1 -83 -10 -138 -32z m221 -274 c38 -14 164 -63 279 -108 116 -46 293
-116 395 -155 452 -175 720 -286 717 -295 -2 -6 -41 -25 -88 -43 -46 -18 -118
-47 -159 -63 -41 -17 -82 -30 -91 -30 -8 0 -28 14 -44 30 -37 38 -157 110
-261 155 -163 70 -366 114 -534 115 l-85 1 -30 47 c-132 207 -452 69 -395
-169 24 -98 118 -169 223 -169 22 0 90 10 151 21 143 28 286 22 431 -15 102
-26 246 -91 253 -113 4 -14 0 -15 -153 -73 -55 -20 -197 -73 -315 -117 -388
-146 -359 -138 -426 -118 -32 9 -184 64 -338 122 -155 58 -339 127 -411 153
-204 75 -606 226 -647 244 -21 9 -38 20 -38 24 0 5 51 27 113 51 61 24 207 81
322 126 116 46 282 111 370 145 88 34 205 80 260 102 55 21 123 48 150 58 28
10 95 37 150 58 55 22 107 41 116 41 9 1 48 -11 85 -25z m1034 -1312 l0 -318
-117 -49 c-65 -26 -128 -54 -140 -62 -44 -26 -309 -114 -462 -152 -355 -89
-597 -74 -1011 61 -85 28 -175 60 -200 71 -25 11 -101 41 -170 67 l-125 48 -3
308 c-1 169 1 311 5 315 5 3 71 -16 148 -43 232 -82 522 -188 665 -244 171
-66 257 -94 288 -94 34 0 185 52 497 172 143 55 305 115 360 134 55 18 136 49
180 68 44 19 81 35 83 35 1 1 2 -142 2 -317z"/>
<path d="M2865 7100 c-228 -5 -255 -8 -307 -29 -179 -70 -311 -220 -358 -407
-19 -75 -20 -116 -20 -1508 0 -1573 -4 -1480 61 -1609 17 -34 45 -79 62 -100
31 -40 27 -56 -14 -57 -9 0 -48 -16 -87 -35 -88 -44 -154 -114 -209 -222 -64
-123 -432 -900 -465 -982 l-30 -74 4 -181 3 -181 34 -70 c47 -95 125 -172 223
-219 149 -71 -109 -66 3250 -64 2865 3 3036 4 3093 21 104 30 197 82 251 139
109 115 134 192 134 415 0 201 23 143 -397 1003 -96 196 -131 257 -172 302
-56 61 -121 107 -191 134 -25 9 -49 20 -53 24 -5 4 10 35 33 69 23 34 54 94
69 134 l26 72 3 1455 c2 1026 -1 1471 -9 1508 -40 197 -229 397 -424 448 -72
19 -578 31 -628 15 -48 -16 -67 -45 -67 -100 0 -42 32 -111 53 -111 16 0 6
-32 -18 -58 -40 -42 -52 -95 -32 -137 31 -66 45 -69 297 -75 l227 -5 41 -27
c84 -56 77 66 80 -1368 2 -701 0 -1304 -3 -1339 -6 -56 -12 -69 -47 -107 -75
-81 140 -75 -2309 -72 l-2185 3 -43 28 c-27 18 -50 44 -62 70 -18 41 -19 87
-19 1347 0 909 3 1317 11 1345 6 22 23 53 37 69 49 53 70 56 337 56 264 0 296
5 329 51 9 14 16 43 16 71 0 41 -5 54 -35 87 l-35 38 21 19 c49 44 62 110 33
165 -22 44 -68 59 -171 57 -48 -1 -200 -5 -338 -8z m-251 -3885 l66 -25 2309
0 c2276 0 2310 0 2373 20 34 11 74 20 88 20 34 0 220 -91 247 -121 12 -13 127
-238 255 -499 230 -468 233 -476 232 -536 -2 -70 -19 -109 -68 -151 -70 -62
161 -58 -3121 -58 -3282 0 -3051 -4 -3121 58 -49 42 -64 77 -64 146 0 57 8 78
121 318 67 142 174 364 239 493 l118 235 123 62 c68 34 127 62 130 62 4 1 37
-10 73 -24z"/>
<path d="M2614 2976 c-29 -29 -34 -41 -34 -81 0 -40 5 -52 34 -81 l34 -34 852
0 852 0 34 34 c29 29 34 41 34 81 0 40 -5 52 -34 81 l-34 34 -852 0 -852 0
-34 -34z"/>
<path d="M4582 2994 c-58 -40 -69 -125 -23 -176 l29 -33 301 -3 c336 -3 350
-1 377 63 23 56 18 83 -25 126 l-39 39 -299 0 c-254 0 -302 -2 -321 -16z"/>
<path d="M5432 2994 c-31 -21 -52 -66 -52 -110 0 -28 8 -44 34 -70 l34 -34
947 0 947 0 34 34 c29 29 34 41 34 79 0 39 -5 49 -40 81 l-40 36 -938 0 c-833
0 -940 -2 -960 -16z"/>
<path d="M3942 2660 l-1534 -5 -24 -28 c-29 -34 -33 -109 -8 -146 38 -54 -120
-51 2629 -51 2232 0 2550 2 2575 15 36 18 70 66 70 97 0 31 -33 83 -67 105
-26 17 -82 18 -1068 18 -572 0 -1730 -2 -2573 -5z"/>
<path d="M4132 2283 c-66 -32 -83 -125 -35 -185 16 -18 35 -38 43 -45 12 -10
209 -12 849 -13 l833 0 39 39 c36 35 39 43 39 93 0 62 -15 89 -64 112 -31 14
-116 16 -853 16 -735 0 -821 -2 -851 -17z"/>
<path d="M3350 5968 c-68 -18 -105 -75 -97 -146 7 -66 49 -104 120 -110 49 -4
57 -2 90 28 68 60 71 133 8 194 -35 34 -77 45 -121 34z"/>
<path d="M3724 5926 c-28 -28 -34 -42 -34 -75 0 -45 18 -89 46 -112 10 -8 49
-16 98 -19 65 -4 81 -8 80 -21 -1 -8 -33 -58 -71 -110 -122 -164 -153 -217
-153 -263 0 -23 8 -53 18 -69 40 -60 -20 -56 919 -57 l861 0 31 26 c17 14 36
43 42 64 10 33 9 43 -10 77 -41 72 11 67 -785 73 l-719 5 69 100 c39 57 70
115 74 135 l5 35 652 5 652 5 30 29 c55 53 51 129 -11 181 l-30 25 -865 0
-865 0 -34 -34z"/>
<path d="M5933 5511 c-86 -39 -97 -139 -23 -206 20 -18 40 -20 239 -25 l216
-5 3 -122 3 -122 -37 -16 c-88 -36 -155 -117 -194 -235 -82 -243 133 -503 393
-476 71 7 148 40 200 86 48 42 67 78 67 128 0 33 -6 45 -35 71 -48 42 -106 43
-155 3 -68 -56 -114 -66 -169 -37 -53 27 -81 71 -81 127 0 46 4 54 44 94 38
39 49 44 87 44 35 0 56 -8 103 -40 32 -22 67 -40 78 -40 57 0 128 59 128 107
0 53 -67 131 -150 173 l-40 20 0 188 c0 220 -7 243 -80 280 -42 21 -54 22
-300 22 -229 0 -259 -2 -297 -19z"/>
<path d="M3340 5437 c-52 -18 -83 -70 -77 -131 4 -41 11 -55 41 -83 30 -28 43
-33 83 -33 39 0 55 6 86 33 73 62 59 165 -28 207 -47 23 -57 23 -105 7z"/>
<path d="M3917 4900 c-16 -5 -35 -14 -43 -21 -25 -21 -46 -70 -40 -94 3 -12
44 -65 91 -116 47 -51 85 -96 85 -99 0 -4 -59 -69 -131 -146 -72 -76 -139
-152 -150 -169 -28 -44 -24 -89 10 -127 l29 -33 300 -3 300 -3 36 31 c43 38
54 82 32 133 -25 61 -64 77 -183 77 -63 0 -103 4 -103 10 0 6 32 44 70 86 81
87 88 118 45 182 -14 20 -25 40 -25 44 0 5 353 8 785 8 645 0 792 2 819 14
107 45 100 195 -12 226 -45 12 -1873 12 -1915 0z"/>
<path d="M3485 4721 c-30 -13 -75 -61 -81 -88 -12 -46 4 -96 41 -130 30 -28
42 -33 86 -33 46 0 55 4 90 39 34 34 39 45 39 84 0 88 -98 159 -175 128z"/>
<path d="M4703 4325 c-43 -18 -73 -69 -73 -122 0 -33 7 -50 30 -77 71 -80 200
-50 231 54 10 32 9 44 -7 76 -36 73 -109 101 -181 69z"/>
<path d="M5264 4311 c-63 -38 -81 -99 -49 -161 29 -56 49 -60 325 -60 202 0
257 3 280 15 88 46 94 146 11 202 -33 22 -40 23 -285 23 -229 0 -254 -2 -282
-19z"/>
</g>
</svg>
